HIERARCHY
ROOT hip
{
	OFFSET 0.000000 0.000000 0.000000 
	CHANNELS 6 Xposition Yposition Zposition Xrotation Zrotation Yrotation
	JOINT abdomen
	{
		OFFSET 0.000000 3.402643 0.000000 
		CHANNELS 3 Xrotation Zrotation Yrotation
		JOINT chest
		{
			OFFSET 0.000000 8.438565 -0.680529 
			CHANNELS 3 Xrotation Zrotation Yrotation
			JOINT neck
			{
				OFFSET 0.000000 10.207942 -0.272212 
				CHANNELS 3 Xrotation Zrotation Yrotation
				JOINT head
				{
					OFFSET 0.000000 3.130431 0.000000 
					CHANNELS 3 Xrotation Zrotation Yrotation
					End Site
					{
						OFFSET 0.000000 3.130435 0.000000 
					}
				}
			}
			JOINT lCollar
			{
				OFFSET 3.470700 6.669187 -0.816635 
				CHANNELS 3 Yrotation Zrotation Xrotation
				JOINT lShldr
				{
					OFFSET 3.198488 0.000000 0.000000 
					CHANNELS 3 Zrotation Yrotation Xrotation
					JOINT lForeArm
					{
						OFFSET 10.139888 0.000000 0.000000 
						CHANNELS 3 Yrotation Zrotation Xrotation
						JOINT lHand
						{
							OFFSET 8.370511 0.000000 0.000000 
							CHANNELS 3 Zrotation Yrotation Xrotation
							End Site
							{
								OFFSET 4.083176 0.000000 0.000000 
							}
						}
					}
				}
			}
			JOINT rCollar
			{
				OFFSET -3.470700 6.669187 -0.816635 
				CHANNELS 3 Yrotation Zrotation Xrotation
				JOINT rShldr
				{
					OFFSET -3.198488 0.000000 0.000000 
					CHANNELS 3 Zrotation Yrotation Xrotation
					JOINT rForeArm
					{
						OFFSET -10.139888 0.000000 0.000000 
						CHANNELS 3 Yrotation Zrotation Xrotation
						JOINT rHand
						{
							OFFSET -8.370511 0.000000 0.000000 
							CHANNELS 3 Zrotation Yrotation Xrotation
							End Site
							{
								OFFSET -4.083176 0.000000 0.000000 
							}
						}
					}
				}
			}
		}
	}
	JOINT lThigh
	{
		OFFSET 5.308129 -1.633274 1.361059 
		CHANNELS 3 Xrotation Zrotation Yrotation
		JOINT lShin
		{
			OFFSET -2.041588 -20.007561 0.000000 
			CHANNELS 3 Xrotation Zrotation Yrotation
			JOINT lFoot
			{
				OFFSET 0.000000 -19.190928 -1.224953 
				CHANNELS 3 Xrotation Yrotation Zrotation
				End Site
				{
					OFFSET 0.000000 -2.449906 4.627600 
				}
			}
		}
	}
	JOINT rThigh
	{
		OFFSET -5.308129 -1.633274 1.361059 
		CHANNELS 3 Xrotation Zrotation Yrotation
		JOINT rShin
		{
			OFFSET 2.041588 -20.007561 0.000000 
			CHANNELS 3 Xrotation Zrotation Yrotation
			JOINT rFoot
			{
				OFFSET 0.000000 -19.190928 -1.224953 
				CHANNELS 3 Xrotation Yrotation Zrotation
				End Site
				{
					OFFSET 0.000000 -2.449906 4.627600 
				}
			}
		}
	}
}
MOTION
Frames: 14
Frame Time: 0.011111
18.661806 50.693836 -3.513395 -2.105580 8.944655 -94.874428 17.141018 -5.309008 -7.900418 -34.194271 0.345240 -1.852482 6.457338 -13.807821 -21.017349 1.803354 39.322365 -46.240982 -10.275489 -5.709454 -1.550532 -66.993591 -1.665144 34.387897 -94.407417 8.368894 37.649540 8.524705 12.647240 -61.536507 5.831508 6.350754 -0.460990 17.872622 66.178322 -33.339764 86.505531 -1.758591 31.315874 -8.534408 -12.637552 51.449078 -27.890375 13.427571 -2.602976 73.862289 -1.023240 -9.129262 -3.144235 2.005673 -3.039249 -13.950634 7.859910 -13.138633 30.483490 5.310038 4.891985 -21.026548 4.444301 4.363183 
18.103416 50.609436 -3.527573 -2.708474 9.336411 -101.250359 17.293318 -5.219708 -8.717478 -33.679031 1.331952 -2.153023 6.317203 -13.431845 -21.541851 1.602301 39.930595 -47.937428 -10.275489 -5.709454 -1.550532 -66.929390 -1.247239 34.899799 -94.555565 8.431392 37.727871 8.524705 12.647240 -61.585335 5.831508 6.350754 -0.460990 15.941337 68.510544 -33.218605 86.520874 -1.788713 31.362921 -8.534408 -12.637552 54.642437 -30.525173 12.831314 -4.976795 74.387665 -0.945478 -9.157572 -7.282741 5.090666 -2.538514 -13.097063 8.209311 -13.021942 30.902990 5.285797 4.942696 -17.589918 8.707517 5.810178 
17.527136 50.588169 -3.500566 -3.348478 9.645984 -108.242950 17.482069 -5.112961 -8.934032 -33.694077 2.276513 -2.305108 5.658139 -12.874897 -21.644831 3.146159 39.474609 -48.107521 -10.275489 -5.709454 -1.550532 -66.997063 -0.247716 35.741791 -94.623634 8.461354 37.761974 8.524705 12.647240 -61.751350 5.831508 6.350754 -0.460990 13.905347 70.462181 -33.167942 86.548637 -1.849353 31.457361 -8.534408 -12.637552 58.675640 -32.906818 12.479571 -6.733087 74.572418 -0.926084 -9.175415 -10.881784 7.211298 -1.844034 -12.170910 8.824147 -10.864807 31.122112 5.276498 4.969205 -14.899924 11.651334 6.464450 
16.926884 50.576015 -3.404350 -3.893751 10.068988 -115.551880 17.489935 -4.515238 -8.680122 -33.503483 2.870758 -2.339912 5.307338 -12.770614 -21.527964 3.282060 39.631920 -48.252804 -10.275489 -5.709454 -1.550532 -66.673592 0.384246 36.785973 -94.670647 8.484336 37.785103 8.524705 12.647240 -61.184952 5.831508 6.350754 -0.460990 11.422055 72.543762 -33.936581 86.622604 -1.996606 31.654799 -8.534408 -12.637552 62.943218 -35.295113 12.537210 -8.267411 74.552246 -0.916962 -9.186548 -14.179519 8.410277 -1.107984 -11.238221 9.598228 -7.740694 31.011295 5.290593 4.953508 -12.484952 13.832845 6.718479 
16.283758 50.631382 -3.284164 -4.355702 10.569725 -122.998535 17.465321 -3.455785 -8.154297 -33.447918 3.197571 -2.348526 5.577751 -13.100538 -21.090483 3.018044 40.516293 -47.878708 -10.275489 -5.709454 -1.550532 -66.610085 0.980345 37.844757 -94.564095 8.436624 37.728668 8.524705 12.647240 -60.774792 5.831508 6.350754 -0.460990 8.865885 74.321136 -34.765392 86.609352 -1.967683 31.626839 -8.534408 -12.637552 67.357285 -37.556507 12.470238 -10.802849 74.125130 -1.004146 -9.152964 -16.444130 8.238100 -0.723472 -10.259165 10.356274 -4.557601 30.751503 5.306139 4.924294 -9.460922 16.057417 6.611114 
15.581889 50.745491 -3.145411 -4.932674 10.907848 -130.808334 17.595945 -2.262318 -7.488687 -33.578297 3.493920 -2.324203 5.877175 -13.676607 -20.322603 3.034536 41.273773 -46.699093 -10.275489 -5.709454 -1.550532 -66.592270 1.895571 38.862431 -94.565536 8.435848 37.738293 8.524705 12.647240 -60.579483 5.831508 6.350754 -0.460990 6.315522 75.926659 -35.370102 86.624054 -1.996927 31.664539 -8.534408 -12.637552 71.673691 -39.442101 12.206642 -13.895662 73.374908 -1.092172 -9.125092 -18.053255 6.002339 -1.029357 -9.242062 10.647404 -1.976515 30.422455 5.319884 4.889232 -5.730098 19.309486 6.286195 
14.800011 50.853184 -2.969185 -5.878998 11.099589 -138.870514 17.754675 -1.222356 -6.608657 -33.637981 3.538897 -2.216650 5.367037 -13.811209 -19.435532 3.566960 41.100460 -44.982437 -10.275489 -5.709454 -1.550532 -67.121185 2.030882 39.119396 -94.398933 8.363595 37.648754 8.524705 12.647240 -60.940807 5.831508 6.350754 -0.460990 3.888087 77.051460 -35.868977 86.603035 -1.957808 31.608011 -8.534408 -12.637552 75.716660 -41.253368 11.708754 -17.223009 72.226677 -1.228321 -9.034377 -18.507927 3.957725 -1.553214 -8.783194 10.247877 -0.130902 30.384743 5.305132 4.891755 -0.838199 22.739960 5.134515 
13.934743 51.062496 -2.816928 -6.997683 10.978019 -146.994934 18.068861 -0.474053 -5.491306 -33.695961 3.385884 -1.988416 4.315322 -13.555630 -18.595943 4.813148 40.039249 -43.077335 -10.275489 -5.709454 -1.550532 -66.746872 2.156029 40.238075 -94.195709 8.271623 37.546806 8.524705 12.647240 -61.077526 5.831508 6.350754 -0.460990 1.874442 77.435837 -36.076027 86.540100 -1.829234 31.429123 -8.534408 -12.637552 79.349472 -42.569809 10.967563 -21.220707 70.600060 -1.475112 -8.961344 -19.059366 2.490808 -1.935842 -8.677826 9.312561 1.316032 30.564041 5.295800 4.924511 4.946532 25.560188 3.031172 
12.986765 51.205639 -2.697417 -7.960198 10.419056 -154.991562 18.721411 0.007458 -4.415651 -33.842251 3.262696 -1.750256 3.185966 -13.397558 -17.728460 6.515663 38.793865 -40.968754 -10.275489 -5.709454 -1.550532 -66.427216 2.311045 41.351948 -94.002357 8.182074 37.436054 8.524705 12.647240 -61.126354 5.831508 6.350754 -0.460990 0.109636 77.523857 -35.965599 86.535652 -1.819529 31.420034 -8.534408 -12.637552 82.542831 -43.270702 10.431343 -24.826458 68.611923 -1.700156 -8.829823 -18.826790 -0.050865 -2.804615 -8.675294 8.020776 2.539025 30.941683 5.285704 4.975270 10.575824 27.337826 0.436855 
11.977343 51.440609 -2.690327 -8.629013 9.634811 -163.100418 19.700308 0.347593 -3.248990 -33.939487 3.121069 -1.455864 2.065137 -13.105170 -16.782942 7.676340 37.693581 -38.937840 -10.275489 -5.709454 -1.550532 -66.107323 2.237926 42.601196 -93.904358 8.138402 37.380890 8.524705 12.647240 -61.614639 5.831508 6.350754 -0.460990 -1.491319 77.252380 -35.583057 86.504814 -1.758723 31.315882 -8.534408 -12.637552 85.589699 -43.171032 10.010506 -29.185194 66.389442 -1.992730 -8.666662 -18.430845 -2.427892 -3.615134 -8.534633 6.552592 3.426152 31.213049 5.256102 5.011398 16.472643 28.080845 -2.613710 
10.923021 51.780903 -2.814564 -9.243427 8.829676 -171.567612 20.504791 0.620614 -2.031523 -33.623173 2.660804 -1.087460 1.090046 -12.716860 -15.786586 8.193604 37.210571 -37.089546 -10.275489 -5.709454 -1.550532 -65.430244 1.988666 43.266693 -93.914078 8.143239 37.391293 8.524705 12.647240 -61.604870 5.831508 6.350754 -0.460990 -2.547905 77.618713 -35.482716 86.448639 -1.636028 31.117430 -8.534408 -12.637552 87.572121 -42.299923 10.196608 -32.888969 63.793236 -2.296360 -8.488578 -17.068138 -5.288389 -4.573818 -8.562571 4.852278 3.320415 31.390574 5.261532 5.028484 23.455196 27.763376 -6.394144 
9.858232 52.184338 -3.045482 170.284409 172.329407 -0.446269 21.277172 0.367330 -0.776764 -33.445324 2.348653 -0.693626 1.476364 -13.451880 -17.672611 9.259772 37.682350 -31.822578 -10.275489 -5.709454 -1.550532 -65.184517 2.457250 43.851204 -94.107872 8.231886 37.492123 8.524705 12.647240 -61.282600 5.831508 6.350754 -0.460990 -3.495019 77.576950 -34.591591 86.395462 -1.519761 30.889267 -8.534408 -12.637552 89.691261 -40.536846 10.625021 -35.924133 61.019592 -2.627335 -8.259886 -15.919648 -8.217534 -5.479340 -8.529521 2.917254 3.127165 31.102680 5.271710 4.975955 29.702116 26.570499 -9.828640 
8.730653 52.666428 -3.351009 -9.877707 6.040425 170.357056 22.188896 -0.222662 0.381132 -33.334545 1.843791 0.129783 -0.733003 -12.223616 -16.289972 12.117346 35.506580 -28.689028 -10.275489 -5.709454 -1.550532 -64.643196 2.996206 44.668720 -94.407417 8.368894 37.649540 8.524705 12.647240 -60.686901 5.831508 6.350754 -0.460990 -4.213980 77.464821 -33.634499 86.359039 -1.442999 30.708080 -8.534408 -12.637552 91.576027 -37.772953 10.918025 -37.592587 57.988274 -2.978471 -7.995949 -13.333839 -10.849016 -5.971835 -8.617724 0.896929 4.973937 30.542599 5.310468 4.907063 32.815029 24.927935 -11.295481 
7.680381 53.245750 -3.777735 -9.682822 3.972959 160.809052 22.845490 -1.858201 1.695284 -33.009682 1.503233 0.644666 -2.550238 -10.805819 -14.749107 13.951321 33.624794 -25.402325 -10.275489 -5.709454 -1.550532 -63.620686 3.160563 45.336338 -94.701912 8.495429 37.806519 8.524705 12.647240 -59.915417 5.831508 6.350754 -0.460990 -4.726300 77.437836 -32.758739 86.329102 -1.385844 30.545126 -8.534408 -12.637552 93.011574 -34.331978 11.202177 -37.556168 54.777142 -3.302870 -7.696716 -10.042203 -12.145164 -5.777882 -8.990847 -0.927787 9.964027 30.045805 5.315593 4.863953 32.088135 22.951775 -10.272043 
